<svg xmlns="http://www.w3.org/2000/svg" viewBox="0 0 26.94 34.09"><path d="M13.62.02L13.47 0 0 1.41v24.66l13.47 8.02L26.9 26.1l.04-.02V1.41L13.62.02zm11.4 12.11l-11.53-6.8v-.1l-.09.05-.09-.06v.11L1.92 12.12V3.15l11.55-1.21 11.55 1.21v8.98zM13.41 6.79l11.52 6.71-4.48 2.64-7.09-4.22-.01 1.42 5.9 3.51-.86.51-5.03-2.99-.01 1.41 3.83 2.27-.78.52-3.03-1.79-.01 1.41 1.85 1.09-1.8 1.08-11.38-6.74 11.38-6.83zM1.92 15.13l11.41 6.79.02 1.04-7.94-4.73-.01 1.42 7.98 4.79.02 1.08-7.97-4.74-.02 1.42 8.02 4.82.05.02 8.14-4.87-.01-5.18 3.42-2.04v10.02l-11.55 6.87-11.56-6.86v-9.85z"/></svg>