<svg xmlns="http://www.w3.org/2000/svg" viewBox="0 0 425.2 425.2"><path d="M297.52 5.82h-1.62c-2.9 1.49-4.64 4.01-6.13 6.79-2.5 4.66-4.29 9.61-5.64 14.68-.91 3.45-2.79 5.1-6.31 5.7-9.94 1.69-17.2 7.34-22.28 15.92-3.17 5.35-5.64 11.03-7.89 16.82-6.11 15.7-10.79 31.9-16.49 47.74-2.72 7.56-2.83 7.47-10.94 7.52-9.63.07-8.95-1.53-9.13 9.14-.06 3.38 1.01 5.09 4.58 4.93 1.11-.05 2.77-.55 3.19.93.34 1.23-1.02 2.08-1.84 2.94-5.09 5.35-11.44 8.46-18.47 10.33-8.07 2.16-16.3 3.84-24.21 6.48-20.18 6.74-38.89 16.17-53.46 32.18-8.89 9.77-15.02 21.37-20.23 33.41C84.76 258 77.27 296.84 71.27 336.05c-2.81 18.37-4.8 36.84-6.35 55.35-.78 9.24-1.77 18.49-1.66 27.8 47.23.13 94.45.25 141.68.38.5-1.97-.3-3.73-.97-5.47-2.86-7.49-8.77-11.41-16.23-13.16-2.95-.69-3.32-1.58-1.48-3.91 3.12-3.95 5.18-8.5 6.8-13.24 7-20.49 9.73-41.9 13.14-63.13 2.6-16.21 6.46-31.89 14.91-46.17 6.25-10.56 14.06-19.71 23.86-27.13 3.54-2.68 3.65-2.68 4.24 1.89.4 3.06.49 6.16.67 9.25 1.17 20.18 1.01 40.35-.89 60.48-1.49 15.7-2.1 31.38-.78 47.13 1.53 18.15 4.81 35.98 9.36 53.59l56.67.15c-1.35-9.37-8.9-17.2-17.98-19-5.45-1.08-10.75-.38-16.02.82-2.54.58-3.6.12-3.81-2.78-1.62-22.7-.41-45.26 4.27-67.51 5.41-25.7 10.5-51.46 13.24-77.57 1.14-10.85 4.45-20.59 9.75-29.97 5.1-9.03 9.54-18.43 14.55-27.51 3.97-7.2 4.74-14.48 1.82-22.15-1.15-3.02-2.24-6.08-3.64-8.98-4.04-8.37-8.34-16.62-12.32-25.01-2.06-4.34-1.63-4.8 3.03-4.89 6.93-.13 6.94-.13 7.06-6.99.02-.94-.02-1.89 0-2.83.07-2.94-1.08-4.56-4.3-4.33-2.15.15-4.32-.01-6.47.02-2.94.05-3.79-1.24-3.06-4.08 2.49-9.72 11.86-17.68 21.89-18.87 9.52-1.14 18.82.24 28.1 1.91 2.76.5 4.28-.1 5.33-2.72 1.7-4.25 3.62-8.41 5.51-12.59.79-1.74.86-3.27-.38-4.89-13.46-17.56-28.14-33.79-48.23-44.11-2.11-1.08-3.27-2.46-3.76-4.81-1.26-6.07-2.73-12.09-5.34-17.76-1.38-2.98-2.96-5.77-5.96-7.44z"/></svg>