<svg xmlns="http://www.w3.org/2000/svg" viewBox="0 0 55.48 59.95"><path d="M52.35 12.17h-6.96c.46-.67.83-1.41 1.07-2.21.59-1.98.37-4.08-.61-5.9a7.688 7.688 0 00-4.6-3.74 7.727 7.727 0 00-5.9.61c-3.61 1.95-6.17 6.11-7.6 9.01-1.43-2.9-3.99-7.06-7.6-9.01C16.39-1.1 11.68.3 9.65 4.06c-1.45 2.66-1.16 5.78.45 8.11H3.13C1.41 12.17 0 13.58 0 15.3v9.38c0 1.73 1.41 3.13 3.13 3.13h.83v26.11c0 3.33 2.71 6.03 6.03 6.03h35.49c3.32 0 6.03-2.7 6.03-6.03v-26.1h.83c1.73 0 3.13-1.4 3.13-3.13V15.3c.01-1.72-1.4-3.13-3.12-3.13zM36.48 3.05a5.3 5.3 0 014.07-.42 5.31 5.31 0 013.18 2.58 5.3 5.3 0 01.42 4.07c-.36 1.2-1.13 2.2-2.16 2.89H29.35c1.13-2.53 3.61-7.21 7.13-9.12zM11.75 5.21c1.4-2.59 4.65-3.56 7.25-2.16 3.52 1.91 6 6.6 7.13 9.12H13.49c-2.26-1.52-3.06-4.52-1.74-6.96zm14.79 22.61v13.67H6.36V27.82h20.18zM6.36 53.92V43.89h20.18v13.67H9.99c-2-.01-3.63-1.63-3.63-3.64zm39.12 3.63H28.94V43.89h20.17v10.04c0 2-1.62 3.62-3.63 3.62zm3.63-16.06H28.94V27.82h20.17v13.67zm3.97-16.81c0 .4-.33.73-.73.73H3.13c-.4 0-.73-.33-.73-.73V15.3c0-.4.34-.73.73-.73h49.21c.4 0 .73.33.73.73v9.38z"/></svg>