<svg xmlns="http://www.w3.org/2000/svg" viewBox="0 0 22 12"><path d="M17.55 12c-.28 0-.86-.06-1.52-.48-.47-.29-.9-.74-1.31-1.17-.32-.34-.86-.9-1.06-.9-.2.06-.35.7-.35 1.19 0 .09 0 .59-.34.92-.31.3-.8.37-.89.38l-1.41.01c-.71 0-3.2-.17-5.45-2.3C2.52 7.1.21 2.2.11 1.99c-.14-.35-.18-.81.11-1.13.29-.31.79-.36 1-.36L4.21.48l.08.01c.07.01.42.07.71.26.28.19.43.5.46.56 0 .01.47 1.09 1.08 2.04.96 1.52 1.39 1.87 1.54 1.95.14-.32.2-1.29.14-2.19 0-.38-.07-.84-.18-.97-.08-.1-.31-.19-.57-.22l-.54-.53c-.07-.5.47-.93.84-1.1C8.31.05 9.09 0 10.08 0h.52c.91.01 1.19.06 1.58.15 1.25.27 1.2 1.32 1.15 2.52-.02.35-.03.76-.03 1.23 0 .11 0 .24-.01.36-.01.29-.02.79.07.99.16-.11.62-.51 1.52-1.89.57-.89 1.03-1.93 1.11-2.13.13-.33.45-.72 1.18-.72L20.3.5c.01 0 .13-.01.28-.01.72 0 1.17.22 1.34.65.2.49.12 1.26-1.73 3.51-.27.33-.51.61-.72.86-.44.52-.89 1.05-.91 1.21.04.13.49.51.92.87 1.12.95 1.85 1.72 2.22 2.34.38.58.31 1.01.19 1.28-.31.66-1.2.74-1.38.75l-2.78.04h-.18zm-3.89-3.69c.66 0 1.23.6 1.84 1.23.36.38.74.77 1.1 1 .53.34.96.32 1.03.31l.08-.01 2.79-.04c.13-.01.3-.06.39-.1-.01-.03-.04-.07-.07-.13-.33-.55-1.02-1.26-1.97-2.07-.87-.73-1.32-1.12-1.37-1.71-.05-.61.36-1.1 1.18-2.06.21-.24.44-.52.71-.84 1.14-1.39 1.44-2.01 1.51-2.25-.12-.02-.48-.02-.5-.01l-3.2.02c-.14 0-.18.03-.18.03-.14.32-.6 1.38-1.21 2.33-1.39 2.15-2.04 2.44-2.5 2.44-.15 0-.29-.04-.42-.11-.74-.43-.71-1.4-.68-2.1 0-.11.01-.22.01-.33 0-.49.02-.92.04-1.29.06-1.28.01-1.29-.28-1.35-.3-.07-.52-.11-1.36-.12h-.51c-.46 0-.98.01-1.4.07.07.06.13.12.19.19.43.54.44 1.49.44 1.67.1 1.25.04 2.89-.75 3.28-.14.07-.29.1-.44.1-.68 0-1.36-.67-2.51-2.49a16.6 16.6 0 01-1.16-2.2c-.01-.01-.04-.05-.06-.06a.732.732 0 00-.23-.09l-2.94.02h-.05c.43.91 2.51 5.02 4.78 7.17 2.01 1.91 4.27 2 4.71 2h1.36c.03-.01.16-.05.2-.08-.01.01-.01-.04-.01-.07 0-.2.01-1.98 1.16-2.31.08-.02.18-.04.28-.04z"/></svg>