<svg xmlns="http://www.w3.org/2000/svg" viewBox="0 0 425.2 425.2"><path d="M385.39 155.85c3.71-5.71 8.36-10.33 14-14.06 3.06-2.02 5.01-2.02 6.64 1.68 2.6 5.9 4.65 11.79 2.78 18.3-.67 2.36-.18 4.38 1.29 6.34 1.72 2.29 3.25 4.71 4.84 7.09 3.89 5.82 5.48 11.96 2.84 18.8-1.15 2.99-1.27 6.09-.62 9.31.59 2.94.48 5.99 0 8.98-.79 4.9-3.35 8.34-8.33 9.64-3.92 1.02-7.33 2.8-9.88 6.02-.66.84-1.51 1.48-2.63 1.63-3.63.49-12.87-7.65-12.86-11.33 0-.6.04-1.2.05-1.8.2-10.88-.45-11.93-10.51-16.29-2.12-.92-4.13-1.95-5.58-3.76-2-2.49-4.42-2.26-6.96-1.2-2.57 1.07-4.27 2.73-3.93 5.85.8 7.33 1.11 14.68 1.08 22.05 0 .86.24 1.86.72 2.55 9.54 13.64 13.13 29.68 17.89 45.12 3.63 11.78 10.46 18.19 22.75 19.05 1.95.14 3.89.59 5.83.95 5.5 1.01 8.79 4.45 10.41 9.58 2.02 6.39 1.01 7.74-5.69 7.79-6.67.04-13.34-.03-20 .05-2.7.04-4.99-.49-7.01-2.47-2.97-2.9-6.85-4.39-10.59-6.03-4.1-1.8-7.9-4.07-10.34-7.83-3.41-5.26-8.05-9.35-12.4-13.73-8.71-8.79-17.72-17.28-25.96-26.54-5.93-6.66-9.81-14.06-9.74-23.12.02-2.85-.72-4.03-3.66-2.6-.94.46-2.01.89-3.03.9-8.67.14-12.91 5.28-15.99 12.69-2.7 6.51-6.55 12.54-9.79 18.83-2.16 4.19-3.56 8.61-3.56 13.39.01 7.14 1.7 9.71 8.49 12.11 4.21 1.49 8.25 3.05 10.55 7.24 2.6 4.73 1.84 6.19-3.5 6.24-6.97.07-13.94-.03-20.91.06-2.71.03-4.54-.9-5.86-3.34-1.72-3.17-3.78-6.16-5.69-9.23-3.16-5.1-4.45-10.31-2.3-16.3 1.86-5.21 1.02-10.8.25-16.11-1.16-7.9.1-14.96 5.32-21.14 1.7-2.01 1.92-3.12-1.22-3.71-12.74-2.37-24.78-6.83-36.44-12.38-.14-.06-.28-.13-.42-.18-9.84-3.75-11.73-2.91-14.5 6.93-2.4 8.54-4.9 17.07-6.77 25.73-2.07 9.57.35 18.81 3.45 27.85 1.2 3.51 4.81 3.36 7.57 4.16 6.05 1.76 11.26 4.3 13.9 10.51 2.05 4.83 1.79 5.48-3.36 5.52-5.3.04-10.63-.26-15.91.09-5.02.33-8.77-1.57-12.87-4.29-14.82-9.82-19.03-24.49-20.22-40.81-.74-10.14-6.12-18.05-12.66-25.38-1.27-1.42-2.42-2.01-4.27-.85-6.45 4.06-13.72 6.3-20.8 8.97-14.89 5.6-27.81 13.95-37.58 26.66-3.55 4.62-6 9.75-6.87 15.53-.82 5.46.72 7.76 6.04 9.32 5.88 1.72 8.22 4.55 8.88 10.44.28 2.49-.63 3.78-3.15 3.78-8.33 0-16.67-.02-25-.05-1.84-.01-3.03-1.09-4.13-2.43-3.98-4.87-5.85-10.51-6.01-16.68-.28-10.56.97-21 2.85-31.37 1.16-6.4 4.2-11.65 10.33-14.52 18.21-8.52 27.72-24.49 36.3-41.31 1.73-3.39.2-3.91-2.77-3.64-8.91.79-16.54 4.71-23.67 9.68-9.2 6.41-17.47 13.93-25.67 21.53-8.98 8.32-19.17 14.11-31.76 14.98-21.26 1.48-31.94-10.7-30.88-30.97.36-6.9 2.7-13.29 7.48-18.5 3.68-4.02 8.16-6.21 13.82-4.59 4.7 1.35 5.92 3.7 3.97 8.07-.79 1.77-2.01 3.35-2.95 5.07-1.08 1.97-2.31 3.91-3.07 6.01-3.24 9.05 1.13 15.49 10.77 16.3 10.23.86 18.54-3.37 26.26-9.37 9.36-7.28 17.53-15.86 24.81-25.05 11.48-14.49 26.33-22.23 44.39-24.56 7-.9 13.3-4.01 20-5.87 12.78-3.56 25.71-5.68 39-5.36 6.26.15 12.05-.84 18.03-3.26 15.02-6.07 30.72-6.05 46.48-2.9 12.32 2.46 24.5 5.53 36.73 8.4 6.92 1.62 14.5 1.04 21.56-.48 13.64-2.95 27.29-5.69 41.28-5.95 9.15-.17 18.11 1.31 26.54 5.15 5.87 2.66 5.87 2.65 4.1 8.42z"/></svg>