<svg version="1.1" id="Layer_1" xmlns="http://www.w3.org/2000/svg" x="0" y="0" viewBox="0 0 20 20" xml:space="preserve"><style>.st0{fill:#68b738}</style><g id="XMLID_1_"><path class="st0" d="M16.7 6.5l3.1 3.1c.2.3.2.7 0 .9l-3.1 3.1-.9-.9 2.1-2.1H9.4V9.4h8.5l-2.1-2 .9-.9zM0 2.9C.1 1.2 1.5-.1 3.1 0h4.4c.3 0 .6.3.7.6v6.3c0 .3-.3.6-.6.6H3.2c0-.6.5-1.2 1.2-1.2h2.4v-5H2.9c-.9 0-1.7.8-1.7 1.8v14c.1 1 .9 1.8 1.9 1.7h3.7v-5H4.3c-.6 0-1.2-.5-1.2-1.2h4.4c.3 0 .6.3.6.6v6.2c0 .3-.3.6-.6.5H3.1h-.2c-1.7 0-3-1.4-2.9-3.1V3.1v-.2z"/></g></svg>